<?xml version="1.0" encoding="UTF-8" standalone="no"?>
<!-- Created with Inkscape (http://www.inkscape.org/) -->

<svg
   xmlns:dc="http://purl.org/dc/elements/1.1/"
   xmlns:cc="http://creativecommons.org/ns#"
   xmlns:rdf="http://www.w3.org/1999/02/22-rdf-syntax-ns#"
   xmlns:svg="http://www.w3.org/2000/svg"
   xmlns="http://www.w3.org/2000/svg"
   xmlns:sodipodi="http://sodipodi.sourceforge.net/DTD/sodipodi-0.dtd"
   xmlns:inkscape="http://www.inkscape.org/namespaces/inkscape"
   version="1.1"
   id="svg2"
   xml:space="preserve"
   width="206.33919"
   height="260.93765"
   viewBox="0 0 206.33919 260.93765"
   sodipodi:docname="logo.svg"
   inkscape:version="0.92.2 (5c3e80d, 2017-08-06)"><metadata
     id="metadata8"><rdf:RDF><cc:Work
         rdf:about=""><dc:format>image/svg+xml</dc:format><dc:type
           rdf:resource="http://purl.org/dc/dcmitype/StillImage" /><dc:title /></cc:Work></rdf:RDF></metadata><defs
     id="defs6"><clipPath
       clipPathUnits="userSpaceOnUse"
       id="clipPath18"><path
         d="M 0,404 H 625 V 0 H 0 Z"
         id="path16"
         inkscape:connector-curvature="0" /></clipPath></defs><sodipodi:namedview
     pagecolor="#ffffff"
     bordercolor="#666666"
     borderopacity="1"
     objecttolerance="10"
     gridtolerance="10"
     guidetolerance="10"
     inkscape:pageopacity="0"
     inkscape:pageshadow="2"
     inkscape:window-width="1920"
     inkscape:window-height="1017"
     id="namedview4"
     showgrid="false"
     fit-margin-top="0"
     fit-margin-left="0"
     fit-margin-right="0"
     fit-margin-bottom="0"
     inkscape:zoom="5.9520002"
     inkscape:cx="107.91149"
     inkscape:cy="128.61374"
     inkscape:window-x="-8"
     inkscape:window-y="-8"
     inkscape:window-maximized="1"
     inkscape:current-layer="g240" /><g
     id="g10"
     inkscape:groupmode="layer"
     inkscape:label="tribal cats"
     transform="matrix(1.3333333,0,0,-1.3333333,-340.24726,414.55434)"><g
       id="g12"><g
         id="g14"
         clip-path="url(#clipPath18)"
         transform="translate(5.5443548,11.08871)"><g
           id="g172"
           transform="translate(387.627,267.8579)"
           style="fill:#d5806e;fill-opacity:1"><path
             d="m 0,0 c 0,0 0.633,19.754 -7.361,30.84 0,0 -1.518,3.365 -6.873,-1.523 -5.356,-4.887 -29.987,-20.201 -23.139,-40.48 0,0 13.385,1.317 16.83,-8.448 0,0 0.584,7.139 -8.675,10.382 -9.259,3.244 -9.131,20.121 15.322,36.45 0,0 2.779,1.878 4.905,0.145 0,0 5.861,-4.09 8.991,-27.366"
             style="fill:#d5806e;fill-opacity:1;fill-rule:nonzero;stroke:none"
             id="path174"
             inkscape:connector-curvature="0" /></g><g
           id="g176"
           transform="translate(367.1611,281.5732)"
           style="fill:#d5806e;fill-opacity:1"><path
             d="m 0,0 c 0,0 -16.51,-1.349 -10.876,-19.287 0,0 10.028,0.049 9.692,11.35 0,0 -2.198,-8.116 -6.82,-7.917 0,0 -3.427,11.894 8.004,15.854"
             style="fill:#d5806e;fill-opacity:1;fill-rule:nonzero;stroke:none"
             id="path178"
             inkscape:connector-curvature="0" /></g><g
           id="g180"
           transform="translate(361.1465,249.415)"
           style="fill:#d5806e;fill-opacity:1"><path
             d="m 0,0 c 0,0 2.316,-0.914 4.102,-4.047 1.786,-3.132 8.263,-12.609 15.296,-10.596 7.034,2.013 11.062,13.008 7.739,28.153 0,0 0.378,-20.321 -8.592,-22.454 C 9.575,-11.078 7.317,-4.648 4.839,-2.47 2.36,-0.291 0,0 0,0"
             style="fill:#d5806e;fill-opacity:1;fill-rule:nonzero;stroke:none"
             id="path182"
             inkscape:connector-curvature="0" /></g><g
           id="g184"
           transform="translate(368.3477,252.043)"
           style="fill:#d5806e;fill-opacity:1"><path
             d="m 0,0 c 0,0 2.72,1.25 4.369,-0.244 1.65,-1.494 2.03,-3.212 5.003,-1.917 2.973,1.295 5.407,5.636 6.267,16.101 0,0 2.612,-13.918 -4.865,-19.332 0,0 -2.914,-2.239 -6.031,1.712 C 3.146,-1.656 3.616,-0.254 0,0"
             style="fill:#d5806e;fill-opacity:1;fill-rule:nonzero;stroke:none"
             id="path186"
             inkscape:connector-curvature="0" /></g><g
           id="g188"
           transform="translate(372.0156,269.2031)"
           style="fill:#d5806e;fill-opacity:1"><path
             d="m 0,0 c 0,0 -5.186,-8.158 -11.961,-9.019 0,0 -0.28,-1.149 2.7,-1.525 2.982,-0.377 7.351,-0.015 8.55,0.402 0,0 -6.148,-0.328 -6.489,1.197 0,0 4.026,1.816 7.2,8.945"
             style="fill:#d5806e;fill-opacity:1;fill-rule:nonzero;stroke:none"
             id="path190"
             inkscape:connector-curvature="0" /></g><g
           id="g192"
           transform="translate(292.8867,253.4502)"
           style="fill:#d5806e;fill-opacity:1"><path
             d="m 0,0 c 0,0 4.467,2.944 8.26,3.43 0,0 8.15,19.729 -25.754,40.15 0,0 -4.752,3.717 -6.847,-1.148 0,0 -13.01,-42.57 6.211,-57.952 0,0 5.403,9.145 11.082,11.503 0,0 -4.577,-0.932 -7.797,-3.964 -3.22,-3.033 -5.409,-4.94 -9.105,2.393 -3.696,7.332 -6.503,23.416 0.53,45.073 0,0 1.454,4.66 7.177,0.499 C -10.52,35.823 7.352,26.221 5.836,4.603 5.836,4.603 2.8,4.189 0,0"
             style="fill:#d5806e;fill-opacity:1;fill-rule:nonzero;stroke:none"
             id="path194"
             inkscape:connector-curvature="0" /></g><g
           id="g196"
           transform="translate(295.1133,260.1855)"
           style="fill:#d5806e;fill-opacity:1"><path
             d="m 0,0 c 0,0 4.124,17.003 -10.72,23.683 0,0 6.902,-4.87 6.158,-11.897 0,0 -4.535,5.017 -11.266,3.735 0,0 9.625,1.455 15.828,-15.521"
             style="fill:#d5806e;fill-opacity:1;fill-rule:nonzero;stroke:none"
             id="path198"
             inkscape:connector-curvature="0" /></g><g
           id="g200"
           transform="translate(275.5034,259.3052)"
           style="fill:#d5806e;fill-opacity:1"><path
             d="m 0,0 c 0,0 9.25,-2.759 15.87,2.943 0,0 -7.364,9.356 -18.255,5.928 0,0 11.756,1.466 14.639,-5.674 C 12.254,3.197 9.951,-0.926 0,0"
             style="fill:#d5806e;fill-opacity:1;fill-rule:nonzero;stroke:none"
             id="path202"
             inkscape:connector-curvature="0" /></g><g
           id="g204"
           transform="translate(282.3555,254.8149)"
           style="fill:#d5806e;fill-opacity:1"><path
             d="m 0,0 c -2.708,-1.439 -5.625,-10.539 -10.623,-6.397 -4.998,4.141 -4.128,16.183 -4.128,16.183 0,0 1.35,-9.348 4.513,-10.697 3.163,-1.35 3.778,-1.518 7.053,0.508 C 0.089,1.623 0,0 0,0"
             style="fill:#d5806e;fill-opacity:1;fill-rule:nonzero;stroke:none"
             id="path206"
             inkscape:connector-curvature="0" /></g><g
           id="g208"
           transform="translate(301.2686,272.9111)"
           style="fill:#d5806e;fill-opacity:1"><path
             d="m 0,0 c 0,0 3.093,-4.142 2.123,-10.82 0,0 5.822,9.762 21.542,8.785 15.224,-0.946 18.994,-6.114 22.226,-11.854 0,0 -0.467,11.205 1.798,14.931 0,0 -3.501,-5.273 -3.937,-9.691 0,0 -14.495,14.868 -39.278,2.754 0,0 -1.97,4.062 -4.474,5.895"
             style="fill:#d5806e;fill-opacity:1;fill-rule:nonzero;stroke:none"
             id="path210"
             inkscape:connector-curvature="0" /></g><g
           id="g212"
           transform="translate(318.3848,266.8242)"
           style="fill:#d5806e;fill-opacity:1"><path
             d="m 0,0 c 0,0 -12.238,0.607 -14.243,-11.908 0,0 -0.763,-3.739 2.229,-3.949 C -6.403,-16.251 -10.061,-2.302 0,0"
             style="fill:#d5806e;fill-opacity:1;fill-rule:nonzero;stroke:none"
             id="path214"
             inkscape:connector-curvature="0" /></g><g
           id="g216"
           transform="translate(332.4209,266.8423)"
           style="fill:#d5806e;fill-opacity:1"><path
             d="m 0,0 c 0,0 12.331,-2.053 12.661,-11.44 0,0 0.24,-2.823 -2.38,-2.64 C 5.368,-13.735 8.472,-2.819 0,0"
             style="fill:#d5806e;fill-opacity:1;fill-rule:nonzero;stroke:none"
             id="path218"
             inkscape:connector-curvature="0" /></g><g
           id="g220"
           transform="translate(472.41584,270.36468)"
           style="fill:#d5806e;fill-opacity:1"><path
             d="m -152.46976,-39.054539 c 0,0 -3.766,10.809 -7.301,13.581 -3.536,2.772 -2.763,3.662 -0.456,6.497 2.307,2.834 3.801,10.1230003 1.325,14.4610003 0,0 6.984,-7.1290003 0.974,-17.6920003 0,0 4.626,-2.608 5.458,-16.847"
             style="fill:#d5806e;fill-opacity:1;fill-rule:nonzero;stroke:none"
             id="path222"
             inkscape:connector-curvature="0" /></g><g
           id="g224"
           transform="matrix(0.8167134,0,0,0.94297692,452.8454,270.7861)"
           style="fill:#d5806e;fill-opacity:1"><path
             d="m -152.46976,-40.608139 c 0,0 4.434,10.618 9.877,14.007 0,0 3.364,1.472 0.869,5.191 -2.496,3.718 -2.76397,10.661988 -1.064,15.1780003 0,0 -7.076,-5.8210003 -3.044,-17.0620003 0,0 -4.331,-2.565 -6.638,-17.314"
             style="fill:#d5806e;fill-opacity:1;fill-rule:nonzero;stroke:none"
             id="path226"
             inkscape:connector-curvature="0"
             sodipodi:nodetypes="cccccc" /></g><g
           id="g228"
           transform="matrix(1.0162787,0,0,0.99999987,478.85578,246.98968)"
           style="fill:#d5806e;fill-opacity:1"><path
             d="m -156.66911,11.791747 c -2.00969,-1.336292 -1.67493,-4.94344 -1.11576,-3.6760027 -2.607,0.1 0,0 0,0 m 6.25511,-16.752438 c 0,0 0.2115,17.7681547 -11.1635,27.4961547 0,0 8.85552,-26.050442 11.63752,-32.372442 0,0 4.59781,24.773737 10.16832,29.949809 0.65197,0.605806 -0.17412,1.502426 0.54496,1.482833 0,0 -14.92279,-6.745533 -12.04248,-19.2518911"
             style="fill:#d5806e;fill-opacity:1;fill-rule:nonzero;stroke:none"
             id="path230"
             inkscape:connector-curvature="0"
             sodipodi:nodetypes="ccccccscc" /></g><g
           id="g232"
           transform="translate(319.6436,227.5977)"
           style="fill:#d5806e;fill-opacity:1"><path
             d="m 0,0 c 0,0 6.209,-3.192 11.5,0.781 0,0 -4.568,1.573 -5.992,5.098 C 5.508,5.879 5.177,2.339 0,0"
             style="fill:#d5806e;fill-opacity:1;fill-rule:nonzero;stroke:none"
             id="path234"
             inkscape:connector-curvature="0" /></g><g
           id="g236"
           transform="translate(331.3154,218.9272)"
           style="fill:#d56f6e;fill-opacity:1"><path
             d="m 0,0 c -0.713,0.441 -1.326,0.639 -1.929,-0.115 -1.01,-1.267 0.336,-2.363 0.336,-2.363 0,0 -2.201,-4.273 -3.697,-4.168 -1.559,0.109 -4.383,3.052 -4.794,4.333 0,0 1.689,0.929 0.945,1.825 -0.935,1.125 -1.266,1.592 -3.159,0.222 0,0 -4.7,1.332 -1.601,4.874 0,0 1.571,1.853 3.58,0.125 0,0 4.261,-2.053 9.494,0.337 0,0 3.298,1.599 3.989,-1.056 C 3.854,1.358 2.282,-1.413 0,0 M 4.114,5.058 C 2.197,8.701 -1.635,6.463 -1.828,6.075 -2.021,5.688 -7.096,4.841 -9.59,6.186 c -2.495,1.345 -6.069,0.425 -6.503,-3.387 -0.434,-3.812 4.107,-4.55 4.107,-4.55 5.233,-6.381 5.35,-6.385 6.997,-6.253 1.806,0.145 4.909,5.671 4.909,5.671 3.515,0.087 6.111,3.748 4.194,7.391"
             style="fill:#d56f6e;fill-opacity:1;fill-rule:nonzero;stroke:none"
             id="path238"
             inkscape:connector-curvature="0" /></g><g
           id="g240"
           transform="translate(345.3574,195.2207)"
           style="fill:#d5806e;fill-opacity:1"><path
             d="m 0,0 c 0,0 -12.917,2.826 -17.759,10.017 0,0 -2.069,2.651 -5.241,-0.885 -3.172,-3.537 -7.562988,-10.12340462 -18.737416,2.861566 0,0 8.053416,-14.643566 15.402416,-8.726566 8.399,6.762 7.594899,4.235146 12.037899,1.093146 C -9.8391012,1.207146 -3.878,0.33359537 0,0"
             style="fill:#d5806e;fill-opacity:1;fill-rule:nonzero;stroke:none"
             id="path242"
             inkscape:connector-curvature="0"
             sodipodi:nodetypes="ccccccc" /></g><g
           id="g244"
           transform="translate(308.9995,240.207)"
           style="fill:#d5806e;fill-opacity:1"><path
             d="m 0,0 c 0,0 -2.166,9.123 -7.863,9.13 -5.698,0.007 -8.84,-3.853 -11.104,-6.213 -2.061,-2.148 -4.458,-5.785 1.963,-11.916 0,0 -3.28,5.414 -1.413,8.452 C -17.285,1.295 -10.644,12.609 0,0"
             style="fill:#d5806e;fill-opacity:1;fill-rule:nonzero;stroke:none"
             id="path246"
             inkscape:connector-curvature="0" /></g><g
           id="g248"
           transform="translate(302.917,237.8979)"
           style="fill:#2a806e;fill-opacity:1"><path
             d="m 0,0 c -0.205,-2.927 -1.816,-5.198 -3.598,-5.073 -1.782,0.124 -3.06,2.598 -2.855,5.525 0.205,2.927 1.816,5.198 3.598,5.073 C -1.073,5.4 0.205,2.927 0,0"
             style="fill:#2a806e;fill-opacity:1;fill-rule:nonzero;stroke:none"
             id="path250"
             inkscape:connector-curvature="0" /></g><g
           id="g252"
           transform="translate(353.8838,240.501)"
           style="fill:#2a5d91;fill-opacity:1"><path
             d="m 0,0 c 0.231,-2.405 -1.028,-4.494 -2.813,-4.665 -1.783,-0.171 -3.416,1.64 -3.647,4.045 -0.231,2.405 1.029,4.494 2.814,4.665 C -1.863,4.216 -0.23,2.405 0,0"
             style="fill:#2a5d91;fill-opacity:1;fill-rule:nonzero;stroke:none"
             id="path254"
             inkscape:connector-curvature="0" /></g><g
           id="g256"
           transform="translate(341.498,240.833)"
           style="fill:#d5806e;fill-opacity:1"><path
             d="m 0,0 c 0,0 1.743,10.563 5.951,11.597 4.207,1.034 6.597,-0.804 9.654,-3.483 3.416,-2.991 12.267,-9.131 0.45,-16.823 0,0 2.389,2.846 3.937,6.115 C 21.54,0.674 13.573,5.933 12.506,6.793 11.438,7.654 5.725,11.943 0,0"
             style="fill:#d5806e;fill-opacity:1;fill-rule:nonzero;stroke:none"
             id="path258"
             inkscape:connector-curvature="0" /></g><g
           id="g260"
           transform="translate(351.8477,231.0205)"
           style="fill:#d5806e;fill-opacity:1"><path
             d="M 0,0 C 0,0 -8.963,0.997 -9.656,5.404 -10.35,9.813 -14.296,0 -13.379,-6.58 c 0,0 1.191,7.095 3.933,7.827 C -6.705,1.979 -5.705,-1.104 0,0"
             style="fill:#d5806e;fill-opacity:1;fill-rule:nonzero;stroke:none"
             id="path262"
             inkscape:connector-curvature="0" /></g><g
           id="g264"
           transform="translate(299.7568,229.6611)"
           style="fill:#d5806e;fill-opacity:1"><path
             d="m 0,0 c 0,0 8.103,1.437 8.978,6.764 0.875,5.326 5.764,-8.926 3.98,-12.935 0,0 -2.191,7.373 -4.312,8.196 C 6.523,2.848 4.738,-0.583 0,0"
             style="fill:#d5806e;fill-opacity:1;fill-rule:nonzero;stroke:none"
             id="path266"
             inkscape:connector-curvature="0" /></g><g
           id="g268"
           transform="translate(261.8369,253.8252)"
           style="fill:#d5806e;fill-opacity:1"><path
             d="m 0,0 c 0,0 -1.971,-19.517 11.285,-20.619 0,0 3.439,0.922 -0.292,-4.163 -3.731,-5.085 -6.472,-15.585 -5.535,-23.671 0,0 -5.55,9.023 1.746,24.912 0,0 -11.836,2.767 -7.204,23.541"
             style="fill:#d5806e;fill-opacity:1;fill-rule:nonzero;stroke:none"
             id="path270"
             inkscape:connector-curvature="0" /></g><g
           id="g272"
           transform="translate(395.1719,249.0835)"
           style="fill:#d5806e;fill-opacity:1"><path
             d="m 0,0 c 0,0 -1.123,-12.027 -11.453,-16.693 0,0 -3.239,-0.634 0.901,-5.39 10.801,-12.402 4.871,-21.676 4.029,-27.966 0,0 9.048,15.065 -0.457,29.739 0,0 8.607,7.866 6.98,20.31"
             style="fill:#d5806e;fill-opacity:1;fill-rule:nonzero;stroke:none"
             id="path274"
             inkscape:connector-curvature="0" /></g><g
           id="g276"
           transform="translate(386.6309,210.9131)"
           style="fill:#d5806e;fill-opacity:1"><path
             d="m 0,0 c 0,0 0.205,13.646 -18.346,27.726 0,0 8.804,-10.266 -7.789,-9.227 0,0 18.345,-0.786 26.135,-18.499"
             style="fill:#d5806e;fill-opacity:1;fill-rule:nonzero;stroke:none"
             id="path278"
             inkscape:connector-curvature="0" /></g><g
           id="g280"
           transform="translate(285.4229,241.0078)"
           style="fill:#d5806e;fill-opacity:1"><path
             d="m 0,0 c 0,0 -5.739,-7.864 -8.609,-11.269 -2.87,-3.405 -8.92,-18.19 -7.233,-26.304 0,0 0.94,22.339 19.882,24.418 0,0 -11.772,0.098 -4.04,13.155"
             style="fill:#d5806e;fill-opacity:1;fill-rule:nonzero;stroke:none"
             id="path282"
             inkscape:connector-curvature="0" /></g><g
           id="g284"
           transform="translate(281.7778,214.7573)"
           style="fill:#d5806e;fill-opacity:1"><path
             d="m 0,0 c 0,0 4.029,10.995 12.256,12.172 8.228,1.178 10.553,-1.576 12.46,1.591 1.909,3.166 11.78,-20.458 -19.236,-16.027 0,0 17.028,-0.192 17.397,10.433 C 22.877,8.169 7.402,12.638 0,0"
             style="fill:#d5806e;fill-opacity:1;fill-rule:nonzero;stroke:none"
             id="path286"
             inkscape:connector-curvature="0" /></g><g
           id="g288"
           transform="translate(371.2266,209.1113)"
           style="fill:#d5806e;fill-opacity:1"><path
             d="m 0,0 c 0,0 0.153,8.492 -4.916,13.878 -3.711,3.942 -6.532,3.34 -10.14,3.718 -3.607,0.379 -9.098,0.694 -10.402,1.76 -1.304,1.066 -3.591,1.821 -2.771,-3.17 0.82,-4.991 0.146,-13.465 18.655,-11.881 0,0 -15.404,1.08 -14.289,10.4 0,0 5.153,-1.495 8.519,-1.224 C -11.186,13.816 -4.445,15.223 0,0"
             style="fill:#d5806e;fill-opacity:1;fill-rule:nonzero;stroke:none"
             id="path290"
             inkscape:connector-curvature="0" /></g><g
           id="g292"
           transform="translate(365.7285,203.3818)"
           style="fill:#d5806e;fill-opacity:1"><path
             d="m 0,0 c 0,0 16.519,0.445 8.101,15.822 0,0 11.25,-6.721 11.3,-17.919 0.051,-11.196 -10.14,-19.672 -22.656,-18.794 0,0 18.934,3.82 16.557,19.958 0,0 -5.226,-5.413 -13.302,0.933"
             style="fill:#d5806e;fill-opacity:1;fill-rule:nonzero;stroke:none"
             id="path294"
             inkscape:connector-curvature="0" /></g><g
           id="g296"
           transform="translate(279.4331,218.4302)"
           style="fill:#d5806e;fill-opacity:1"><path
             d="m 0,0 c 0,0 -6.588,-7.765 -2.496,-13.734 4.092,-5.969 16.795,-5.888 14.142,3.921 0,0 5.255,-3.673 2.653,-9.809 -2.601,-6.135 -13.895,-2.785 -13.895,-2.785 0,0 5.355,-7.778 16.279,-8.879 0,0 -19.17,-3.342 -23.787,13.364 C -10.26,-6.507 0,0 0,0"
             style="fill:#d5806e;fill-opacity:1;fill-rule:nonzero;stroke:none"
             id="path298"
             inkscape:connector-curvature="0" /></g><g
           id="g300"
           transform="translate(256.7046,240.1982)"
           style="fill:#d5806e;fill-opacity:1"><path
             d="M 0,0 C 0,0 -0.575,-8.193 3.622,-10.302 7.818,-12.411 8.36,-9.441 6.744,-8.66 5.128,-7.878 2.348,-7.015 0,0"
             style="fill:#d5806e;fill-opacity:1;fill-rule:nonzero;stroke:none"
             id="path302"
             inkscape:connector-curvature="0" /></g><g
           id="g304"
           transform="translate(254.6177,210.4375)"
           style="fill:#d5806e;fill-opacity:1"><path
             d="m 0,0 c 0,0 0.434,13.336 8.598,17.776 0,0 2.303,1.509 0.694,-3.391 -1.61,-4.899 -6.136,-21.791 11.728,-33.903 0,0 -7.166,2.423 -8.551,4.359 0,0 -0.681,-9.726 -7.386,-12.43 0,0 6.354,6.07 3.482,15.126 C 5.693,-3.406 4.483,-3.652 6.349,12.672 6.349,12.672 3.558,12.615 0,0"
             style="fill:#d5806e;fill-opacity:1;fill-rule:nonzero;stroke:none"
             id="path306"
             inkscape:connector-curvature="0" /></g><g
           id="g312"
           transform="translate(277.6577,187.8184)"
           style="fill:#d5806e;fill-opacity:1"><path
             d="m 0,0 c 0,0 -11.631,-2.907 -11.329,-16.462 0,0 4.644,3.685 9.535,2.84 0,0 -19.523,-26.448 19.293,-46.964 0,0 -35.874,26.574 -5.285,55.004 0,0 -11.848,0.984 -17.267,-1.797 0,0 -0.657,2.794 5.053,7.379"
             style="fill:#d5806e;fill-opacity:1;fill-rule:nonzero;stroke:none"
             id="path314"
             inkscape:connector-curvature="0" /></g><g
           id="g316"
           transform="translate(398.7119,240.0977)"
           style="fill:#d5806e;fill-opacity:1"><path
             d="m 0,0 c 0,0 -2.191,-6.237 -4.293,-8.617 -1.762,-1.995 -0.062,-5.841 8.524,-4.909 0,0 -7.377,-0.115 -5.839,4.88 C 0.224,-2.689 0,0 0,0"
             style="fill:#d5806e;fill-opacity:1;fill-rule:nonzero;stroke:none"
             id="path318"
             inkscape:connector-curvature="0" /></g><g
           id="g320"
           transform="translate(393.8887,223.9194)"
           style="fill:#d5806e;fill-opacity:1"><path
             d="m 0,0 c 0,0 9.88,-1.051 4.098,-19.191 0,0 -1.552,-4.026 -0.417,-5.944 1.725,-2.919 3.796,-7.826 2.496,-13.248 0,0 -0.589,7.387 -3.702,9.008 0,0 0.337,-8.146 -3.585,-12.256 0,0 2.759,5.622 0.55,14.998 C -2.663,-17.705 9.78,-9.851 0,0"
             style="fill:#d5806e;fill-opacity:1;fill-rule:nonzero;stroke:none"
             id="path322"
             inkscape:connector-curvature="0" /></g><g
           id="g324"
           transform="translate(390.6582,194.9434)"
           style="fill:#d5806e;fill-opacity:1"><path
             d="m 0,0 c 0,0 -4.239,-19.352 -20.821,-19.943 0,0 -4.979,0.474 -3.62,-3.38 1.084,-3.075 -0.162,-13.021 -13.096,-24.144 0,0 16.035,3.512 20.632,22.613 0,0 16.882,4.328 16.905,24.854"
             style="fill:#d5806e;fill-opacity:1;fill-rule:nonzero;stroke:none"
             id="path326"
             inkscape:connector-curvature="0" /></g><g
           id="g328"
           transform="translate(349.6387,178.7969)"
           style="fill:#d5806e;fill-opacity:1"><path
             d="m 0,0 c 0,0 23.668,-7.925 -1.007,-31.005 0,0 8.356,18.46 -6.24,21.489 0,0 8.668,-11.885 -7.788,-26.771 0,0 11.372,21.006 2.046,29.179 -9.326,8.171 12.285,4.966 17.591,-8.251 0,0 5.896,6.603 -4.602,15.359"
             style="fill:#d5806e;fill-opacity:1;fill-rule:nonzero;stroke:none"
             id="path330"
             inkscape:connector-curvature="0" /></g><g
           id="g332"
           transform="translate(309.6099,141.7568)"
           style="fill:#d5806e;fill-opacity:1"><path
             d="m 0,0 c 0,0 -16.64,19.963 0.939,34.77 0,0 6.012,3.086 -2.535,2.934 -8.548,-0.153 -20.22,-9.358 -19.257,-24.213 0,0 3.039,12.068 9.39,14.629 0,0 -2.214,-19.392 11.463,-28.12"
             style="fill:#d5806e;fill-opacity:1;fill-rule:nonzero;stroke:none"
             id="path334"
             inkscape:connector-curvature="0" /></g><g
           id="g336"
           transform="translate(315.8491,141.3193)"
           style="fill:#d5806e;fill-opacity:1"><path
             d="m 0,0 c 0,0 -1.031,19.87 6.062,26.892 7.093,7.02 6.351,-39.291 -10.266,-54.666 0,0 21.889,8.247 18.662,58.838 0,0 -1.192,12.782 -9.809,0.688 C -3.309,20.583 -2.823,6.212 0,0"
             style="fill:#d5806e;fill-opacity:1;fill-rule:nonzero;stroke:none"
             id="path338"
             inkscape:connector-curvature="0" /></g><g
           id="g340"
           transform="translate(300.4561,125.5234)"
           style="fill:#d5806e;fill-opacity:1"><path
             d="m 0,0 c 0,0 -1.822,2.3 -5.066,5.033 -3.245,2.734 -12.074,11.874 -1.21,28.989 0,0 1.59,1.609 1.125,-2.644 0,0 -2.696,-5.098 5.037,-16.333 7.733,-11.236 13.839,-21.856 3.759,-32.175 0,0 7.913,13.319 -4.814,25.736 C -13.896,21.023 -2.024,4.485 0,0"
             style="fill:#d5806e;fill-opacity:1;fill-rule:nonzero;stroke:none"
             id="path342"
             inkscape:connector-curvature="0" /></g><g
           id="g344"
           transform="translate(343.6299,145.5508)"
           style="fill:#d5806e;fill-opacity:1"><path
             d="m 0,0 c 0,0 4.377,-11.655 -6.766,-20.242 -7.949,-6.126 -16.46,-8.487 -19.53,-21.185 0,0 -5.263,8.492 12.405,21.433 C 0.475,-9.473 0,0 0,0"
             style="fill:#d5806e;fill-opacity:1;fill-rule:nonzero;stroke:none"
             id="path346"
             inkscape:connector-curvature="0" /></g><g
           id="g348"
           transform="translate(363.5747,144.6644)"
           style="fill:#d5806e;fill-opacity:1"><path
             d="m 0,0 c 0,0 -10.57,-1.656 -13.593,-16.17 -2.222,-10.671 -6.197,-16.692 -17.76,-22.063 0,0 11.348,-0.295 19.225,14.356 0,0 5.253,5.814 7.864,-2.222 0,0 0.531,2.802 -3.62,7.939 C -12.035,-13.022 -8.778,-7.403 0,0"
             style="fill:#d5806e;fill-opacity:1;fill-rule:nonzero;stroke:none"
             id="path350"
             inkscape:connector-curvature="0" /></g><g
           id="g352"
           transform="translate(380.3037,170.5184)"
           style="fill:#d5806e;fill-opacity:1"><path
             d="m 0,0 c 0,0 -2.366,-14.004 -16.729,-25.854 0,0 26.498,3.803 29.204,37.624 0,0 -5.17,-18.926 -15.066,-25.416 0,0 3.321,6.705 2.591,13.646"
             style="fill:#d5806e;fill-opacity:1;fill-rule:nonzero;stroke:none"
             id="path354"
             inkscape:connector-curvature="0" /></g></g></g></g></svg>